<?xml version="1.0" encoding="UTF-8"?>
<svg width="42px" height="42px" viewBox="0 0 42 42" version="1.1" xmlns="http://www.w3.org/2000/svg" xmlns:xlink="http://www.w3.org/1999/xlink">
    <!-- Generator: Sketch 52.2 (67145) - http://www.bohemiancoding.com/sketch -->
    <title>分组</title>
    <desc>Created with Sketch.</desc>
    <g id="首页" stroke="none" stroke-width="1" fill="none" fill-rule="evenodd">
        <g id="首页5" transform="translate(-360.000000, -20.000000)">
            <g id="分组" transform="translate(360.000000, 20.000000)">
                <circle id="椭圆形" fill="#3376FF" fill-rule="nonzero" cx="21" cy="21" r="21"></circle>
                <path d="M13,13.3943113 L13,12 L14.1610162,12.8548575 L20.9934994,17.8856221 L20.9934994,19.4515483 L20.9969409,19.4541598 L20.9969409,32 L13,24.5563399 L13,13.3943113 Z M19.8925439,18.6195287 L14.8307894,14.7822273 L14.8307894,23.3913228 L19.892466,27.8826799 L19.892466,29.4264874 L13.9032362,23.9812389 L19.8925439,29.4266028 L19.8925439,18.6195287 Z M22.1058973,21.7019019 L22.1058973,23.2468727 L28.9984412,17.5770144 L29,18.9739026 L22.1058973,24.7914494 L22.1066764,27.879504 L28.141345,22.5239292 L28.9994544,23.1577595 L22.1070658,29.423322 L22.1070664,29.4255644 L28.9996103,23.1576441 L28.9984412,24.5537631 L20.9972137,31.9997308 L20.9972137,19.4542752 L22.1058973,18.6162192 L22.1058973,21.7019019 L22.1057414,23.2469881 L28.9982853,17.5771298 L28.0447005,16.9475302 L22.1058973,21.7019019 Z M28.9984802,12.0001154 L28.9984802,13.3977727 L20.9972526,19.4541598 L20.9972526,17.8857375 L28.9984802,12.0001154 Z M13.0001559,12 L28.9983243,12 L20.9970968,17.8856221 L13.0001559,12 Z" id="合并形状" fill="#FFFFFF"></path>
                <polygon id="路径" fill="#3376FF" points="20.9990452 16.3168152 16.1648728 12.8638246 25.8277619 12.8638246"></polygon>
                <path d="M14.8307894,23.3913228 L19.892466,27.8826799 L19.892466,29.4264874 L13.9032362,23.9812389 L13.902145,14.0781019 L14.8307894,14.7815458 L14.8307894,23.3913228 Z M22.1057414,21.7020267 L28.0447005,16.9475302 L28.9982853,17.5771298 L22.1057414,23.2469881 L22.1057414,21.7020267 Z M25.827606,12.8635938 L24.6226676,13.7254953 L17.4023898,13.7474179 L16.1651067,12.8635938 L25.827606,12.8635938 Z M22.1057414,27.8803338 L28.141345,22.5239292 L28.9994544,23.1577595 L22.1057414,29.4245259 L22.1057414,27.8803338 Z" id="Fill-11" fill="#E1EBFF"></path>
            </g>
        </g>
    </g>
</svg>