<?xml version="1.0" encoding="UTF-8"?>
<svg width="17px" height="17px" viewBox="0 0 17 17" version="1.1" xmlns="http://www.w3.org/2000/svg" xmlns:xlink="http://www.w3.org/1999/xlink">
    <!-- Generator: Sketch 52.2 (67145) - http://www.bohemiancoding.com/sketch -->
    <title>形状</title>
    <desc>Created with Sketch.</desc>
    <g id="写字" stroke="none" stroke-width="1" fill="none" fill-rule="evenodd">
        <g transform="translate(-1482.000000, -33.000000)" fill="#9EADBA" fill-rule="nonzero" id="形状">
            <path d="M1498.25443,40.6891089 L1498.25443,45.9391089 C1498.25443,46.4641089 1497.90443,46.8141089 1497.37943,46.8141089 L1485.12943,46.8141089 C1484.60443,46.8141089 1484.25443,46.4641089 1484.25443,45.9391089 L1484.25443,40.6891089 C1484.25443,37.2766089 1486.96693,34.5641089 1490.37943,34.5641089 L1490.37943,33.2516089 C1490.37943,32.9891089 1490.55443,32.8141089 1490.81693,32.8141089 L1491.69193,32.8141089 C1491.95443,32.8141089 1492.12943,32.9891089 1492.12943,33.2516089 L1492.12943,34.5641089 C1495.54193,34.5641089 1498.25443,37.2766089 1498.25443,40.6891089 Z M1492.70361,47.9903117 C1493.20361,47.9903117 1493.53694,48.3903117 1493.53694,48.9903117 C1493.53694,49.5903117 1493.20361,49.9903117 1492.70361,49.9903117 L1489.37027,49.9903117 C1488.87027,49.9903117 1488.53694,49.5903117 1488.53694,48.9903117 C1488.53694,48.3903117 1488.87027,47.9903117 1489.37027,47.9903117 L1492.70361,47.9903117 Z" transform="translate(1491.254432, 41.402210) rotate(28.000000) translate(-1491.254432, -41.402210) "></path>
        </g>
    </g>
</svg>