<?xml version="1.0" encoding="UTF-8"?>
<svg width="100px" height="100px" viewBox="0 0 100 100" version="1.1" xmlns="http://www.w3.org/2000/svg" xmlns:xlink="http://www.w3.org/1999/xlink">
    <!-- Generator: Sketch 52.2 (67145) - http://www.bohemiancoding.com/sketch -->
    <title>分组 8</title>
    <desc>Created with Sketch.</desc>
    <defs>
        <filter x="-0.6%" y="-2.9%" width="101.2%" height="105.7%" filterUnits="objectBoundingBox" id="filter-1">
            <feOffset dx="0" dy="1" in="SourceAlpha" result="shadowOffsetOuter1"></feOffset>
            <feGaussianBlur stdDeviation="2.5" in="shadowOffsetOuter1" result="shadowBlurOuter1"></feGaussianBlur>
            <feColorMatrix values="0 0 0 0 0.925490196   0 0 0 0 0.925490196   0 0 0 0 0.925490196  0 0 0 0.5 0" type="matrix" in="shadowBlurOuter1" result="shadowMatrixOuter1"></feColorMatrix>
            <feMerge>
                <feMergeNode in="shadowMatrixOuter1"></feMergeNode>
                <feMergeNode in="SourceGraphic"></feMergeNode>
            </feMerge>
        </filter>
    </defs>
    <g id="首页" stroke="none" stroke-width="1" fill="none" fill-rule="evenodd">
        <g id="首页5" transform="translate(-365.000000, -2345.000000)">
            <g id="Group-30" filter="url(#filter-1)" transform="translate(0.000000, 2241.000000)">
                <g id="分组-8" transform="translate(370.000000, 108.000000)">
                    <circle id="椭圆形" fill="#3376FF" fill-rule="nonzero" cx="45" cy="45" r="45"></circle>
                    <path d="M42.6466558,40.227152 L42.6466558,63.467196 L29.9195425,51.7599118 L42.6464902,63.4669479 L42.6464902,60.1477617 L31.8904274,50.4913441 L29.9195425,51.7598291 L29.9170582,30.4679191 L31.2403397,31.4820917 L28,28.9977693 L28,26.0002481 L44.9934994,38.6543356 L44.9934994,42.0264436 L44.9934994,69 L28,52.9961309 L28,28.9977693 L29.9170582,30.4680018 L29.9195425,51.7595571 L31.8902618,50.4911954 L31.8904274,31.9805046 L42.6466558,40.227152 Z M47.3500318,46.8590891 L47.3500318,50.1807762 L61.9966876,37.990581 L62,40.9938905 L47.3500318,53.5016163 L47.3516873,60.1409337 L60.1753581,48.6264478 L61.9988407,49.989183 L47.3525149,63.4601422 L47.3525161,63.4649634 L61.9991719,49.9889349 L61.9966876,52.9905906 L44.9940791,68.9994212 L44.9940791,42.0266916 L47.3500318,40.2248713 L47.3500318,46.8590891 L47.3497005,50.1810243 L61.9963563,37.9908291 L59.9699886,36.6371898 L47.3500318,46.8590891 Z M61.9967704,26.0002481 L61.9967704,29.0052114 L44.9941619,42.0264436 L44.9941619,38.6543356 L61.9967704,26.0002481 Z M28.0003312,26 L61.9964392,26 L44.9938306,38.6540875 L28.0003312,26 Z" id="合并形状" fill="#FFFFFF"></path>
                    <polygon id="路径" fill="#3376FF" points="44.9979711 35.2811526 34.7253548 27.8572228 55.258994 27.8572228"></polygon>
                    <path d="M31.8904274,50.4913441 L42.6464902,60.1477617 L42.6464902,63.4669479 L29.9193769,51.7596637 L29.9170582,30.4679191 L31.8904274,31.9803236 L31.8904274,50.4913441 Z M47.3497005,46.8593574 L59.9699886,36.6371898 L61.9963563,37.9908291 L47.3497005,50.1810243 L47.3497005,46.8593574 Z M55.2586628,27.8567267 L52.6981687,29.7098149 L37.3550783,29.7569484 L34.7258517,27.8567267 L55.2586628,27.8567267 Z M47.3497005,60.1427176 L60.1753581,48.6264478 L61.9988407,49.989183 L47.3497005,63.4627307 L47.3497005,60.1427176 Z" id="Fill-11" fill="#E1EBFF"></path>
                </g>
            </g>
        </g>
    </g>
</svg>