<?xml version="1.0" encoding="UTF-8"?>
<svg width="13px" height="9px" viewBox="0 0 13 9" version="1.1" xmlns="http://www.w3.org/2000/svg" xmlns:xlink="http://www.w3.org/1999/xlink">
    <!-- Generator: Sketch 52.2 (67145) - http://www.bohemiancoding.com/sketch -->
    <title>形状</title>
    <desc>Created with Sketch.</desc>
    <g id="首页" stroke="none" stroke-width="1" fill="none" fill-rule="evenodd">
        <g id="首页5" transform="translate(-1038.000000, -808.000000)" fill="#9EADBA" fill-rule="nonzero">
            <path d="M1044.5,808 C1041.54545,808 1039.02228,809.866 1038,812.5 C1039.02227,815.134 1041.54545,817 1044.5,817 C1047.4575,817 1049.97773,815.134 1051,812.5 C1049.97772,809.866 1047.4575,808 1044.5,808 Z M1044.5,815.615385 C1042.72014,815.615385 1041.27559,814.219698 1041.27559,812.5 C1041.27559,810.780302 1042.72012,809.384615 1044.5,809.384615 C1046.27988,809.384615 1047.72441,810.780302 1047.72441,812.5 C1047.72441,814.219698 1046.27986,815.615385 1044.5,815.615385 Z M1044.5,810.769231 C1043.51178,810.769231 1042.70866,811.545196 1042.70866,812.5 C1042.70866,813.454804 1043.51178,814.230769 1044.5,814.230769 C1045.48822,814.230769 1046.29134,813.454804 1046.29134,812.5 C1046.29134,811.545196 1045.48822,810.769231 1044.5,810.769231 Z" id="形状"></path>
        </g>
    </g>
</svg>