<?xml version="1.0" encoding="UTF-8"?>
<svg width="20px" height="20px" viewBox="0 0 20 20" version="1.1" xmlns="http://www.w3.org/2000/svg" xmlns:xlink="http://www.w3.org/1999/xlink">
    <!-- Generator: Sketch 52.2 (67145) - http://www.bohemiancoding.com/sketch -->
    <title>点赞 (15)</title>
    <desc>Created with Sketch.</desc>
    <g id="写字详情" stroke="none" stroke-width="1" fill="none" fill-rule="evenodd">
        <g id="写字详情-回复评论" transform="translate(-509.000000, -2464.000000)" fill="#ffffff">
            <g id="点赞-(15)" transform="translate(509.000000, 2464.000000)">
                <path d="M11.005896,1.53180401 C10.2815042,1.26609514 9.93716816,1.47894794 9.74714036,2.52178389 C8.7484228,5.97171374 7.21534137,7.82167613 5.06502676,7.85738971 L2.1431707,7.85738971 C1.74862387,7.85738971 1.42878047,8.17717981 1.42878047,8.57166089 L1.42878047,17.8571864 C1.42878047,18.2516675 1.74862387,18.5714576 2.1431707,18.5714576 L15.4079686,18.5714576 C15.9937686,18.5714576 16.5409915,18.0157546 17.0039164,16.7714942 C17.567146,14.7731224 18.0499856,12.7529685 18.451271,10.715903 C18.8241827,8.85451229 18.4084076,8.03310042 17.2739559,7.85738971 L12.4732535,7.85738971 C12.1628143,7.85751092 11.8699186,7.71349363 11.6804917,7.4675875 C11.4910649,7.22168136 11.4265853,6.90176879 11.5059691,6.60170093 C12.4175311,3.54176314 12.1632081,1.95465253 11.005896,1.53180401 Z M13.0390506,6.43027586 L17.3782568,6.43741857 C19.5328578,6.75741206 20.3686943,8.41166414 19.8514758,10.9973259 C19.4390962,13.0899194 18.9419478,15.1649179 18.3612578,17.2171994 C17.6954461,19.0100201 16.7210178,20 15.4079686,20 L2.1431707,20 C0.959530204,20 0,19.0406297 0,17.8571864 L0,8.57166089 C0,7.38821764 0.959530204,6.42884732 2.1431707,6.42884732 L5.05359652,6.42884732 C6.39950771,6.40599065 7.52967306,5.04173266 8.35693696,2.19750476 C8.6841277,0.37182759 9.92002279,-0.388156964 11.4973964,0.190402703 C13.4905452,0.918959313 13.9320384,3.0789154 13.0390506,6.43027586 Z" id="形状" fill-rule="nonzero"></path>
                <polygon id="路径" points="5 7 7 7 7 20 5 20"></polygon>
            </g>
        </g>
    </g>
</svg>