<?xml version="1.0" encoding="UTF-8"?>
<svg width="10px" height="10px" viewBox="0 0 10 10" version="1.1" xmlns="http://www.w3.org/2000/svg" xmlns:xlink="http://www.w3.org/1999/xlink">
    <!-- Generator: Sketch 52.2 (67145) - http://www.bohemiancoding.com/sketch -->
    <title>分组 11</title>
    <desc>Created with Sketch.</desc>
    <g id="写字" stroke="none" stroke-width="1" fill="none" fill-rule="evenodd">
        <g id="写字2" transform="translate(-1173.000000, -656.000000)" fill="#9EADBA">
            <g id="分组-10" transform="translate(522.000000, 196.000000)">
                <g id="分组-11" transform="translate(651.000000, 460.000000)">
                    <path d="M9.29711495,4.00542184 L6.49989447,4.00542184 C7.58379508,0.194632874 5.75309229,0 5.75309229,0 C4.97717979,0 5.13802525,0.584084091 5.07935002,0.681470079 C5.07935002,2.54511115 3,4.00543729 3,4.00543729 L3,9.29043157 C3,9.81212124 3.74680218,10 4.03975619,10 L8.24258442,10 C8.63813078,10 8.96022758,9.01250825 8.96022758,9.01250825 C10,5.64673353 10,4.64530079 10,4.64530079 C10.0000162,3.94990518 9.29711495,4.00546821 9.29711495,4.00546821 L9.29711495,4.00542184 Z" id="路径"></path>
                    <path d="M1.65277649,4 L0.286516397,4 C0.00435700922,4 0,4.32382957 0,4.32382957 L0.282159387,9.66034028 C0.282159387,10 0.573337386,10 0.573337386,10 L1.75583499,10 C2.00218479,10 1.99999966,9.77531393 1.99999966,9.77531393 L1.99999966,4.40468251 C1.99999966,3.9948316 1.65275,4.00001547 1.65275,4.00001547 L1.65277649,4 Z" id="路径"></path>
                </g>
            </g>
        </g>
    </g>
</svg>