<?xml version="1.0" encoding="UTF-8"?>
<svg width="198px" height="162px" viewBox="0 0 198 162" version="1.1" xmlns="http://www.w3.org/2000/svg" xmlns:xlink="http://www.w3.org/1999/xlink">
    <!-- Generator: Sketch 52.2 (67145) - http://www.bohemiancoding.com/sketch -->
    <title>分组 4</title>
    <desc>Created with Sketch.</desc>
    <defs>
        <linearGradient x1="58.7128961%" y1="13.0698769%" x2="50%" y2="100%" id="linearGradient-1">
            <stop stop-color="#B1C6FF" offset="0%"></stop>
            <stop stop-color="#7DA0FF" offset="100%"></stop>
        </linearGradient>
        <path d="M0,47 C3.17886263e-15,72.9573832 21.0426168,94 47,94 C72.9573832,94 94,72.9573832 94,47 C94,21.0426168 72.9573832,1.58943132e-15 47,0 C21.0426168,-1.58943132e-15 3.17886263e-15,21.0426168 0,47 Z" id="path-2"></path>
        <filter x="-6.9%" y="-5.9%" width="113.8%" height="113.8%" filterUnits="objectBoundingBox" id="filter-3">
            <feOffset dx="0" dy="1" in="SourceAlpha" result="shadowOffsetOuter1"></feOffset>
            <feGaussianBlur stdDeviation="2" in="shadowOffsetOuter1" result="shadowBlurOuter1"></feGaussianBlur>
            <feColorMatrix values="0 0 0 0 0.68627451   0 0 0 0 0.68627451   0 0 0 0 0.68627451  0 0 0 0.5 0" type="matrix" in="shadowBlurOuter1"></feColorMatrix>
        </filter>
        <linearGradient x1="50%" y1="0%" x2="50%" y2="100%" id="linearGradient-4">
            <stop stop-color="#A9C5FF" offset="0%"></stop>
            <stop stop-color="#427FFF" offset="74.2074603%"></stop>
        </linearGradient>
        <linearGradient x1="38.1015634%" y1="16.3406854%" x2="69.6754333%" y2="88.1926664%" id="linearGradient-5">
            <stop stop-color="#6F8AFE" offset="0%"></stop>
            <stop stop-color="#7063FB" offset="100%"></stop>
        </linearGradient>
        <linearGradient x1="67.9097202%" y1="72.0063403%" x2="19.6126343%" y2="0%" id="linearGradient-6">
            <stop stop-color="#91AFFF" offset="0%"></stop>
            <stop stop-color="#EBF1FF" offset="100%"></stop>
        </linearGradient>
        <linearGradient x1="0%" y1="0%" x2="82.4026703%" y2="100%" id="linearGradient-7">
            <stop stop-color="#D3DFFD" offset="0%"></stop>
            <stop stop-color="#85A7FF" offset="100%"></stop>
        </linearGradient>
        <linearGradient x1="78.5752254%" y1="72.7283278%" x2="0%" y2="0%" id="linearGradient-8">
            <stop stop-color="#91AFFF" offset="0%"></stop>
            <stop stop-color="#EBF1FF" offset="100%"></stop>
        </linearGradient>
        <linearGradient x1="50%" y1="-19.9406176%" x2="39.1984851%" y2="100%" id="linearGradient-9">
            <stop stop-color="#FFBA59" offset="0%"></stop>
            <stop stop-color="#FF182E" offset="100%"></stop>
        </linearGradient>
    </defs>
    <g id="写字详情" stroke="none" stroke-width="1" fill="none" fill-rule="evenodd">
        <g id="点赞" transform="translate(-1116.000000, -158.000000)">
            <g id="分组-5" transform="translate(1101.000000, 145.000000)">
                <g id="分组-4">
                    <g id="分组-3" transform="translate(59.000000, 56.000000)">
                        <g id="路径">
                            <use fill="black" fill-opacity="1" filter="url(#filter-3)" xlink:href="#path-2"></use>
                            <use fill="url(#linearGradient-1)" fill-rule="evenodd" xlink:href="#path-2"></use>
                        </g>
                        <path d="M70.7894931,44.1919531 C70.7894931,41.5626017 68.6372982,39.4311488 65.9823595,39.4311488 L53.8995641,39.4311488 C54.950242,36.1248793 56.7748062,28.5892701 52.0862975,23.5599363 C48.9455615,20.1921288 46.0025338,24.0130798 46.0025338,24.0130798 C46.0025338,24.0130798 49.2054066,37.6185746 35.7951419,43.638111 L35.7951419,66.1722117 L61.2091187,66.1722117 C63.8640574,66.1722117 66.0162523,64.0407588 66.0162523,61.4114074 L66.0162523,61.0142075 C67.535781,60.2142134 68.5695125,58.6310082 68.5695125,56.8072453 L68.5695125,56.3652905 C68.5695125,55.8450146 68.4847804,55.3471161 68.3322626,54.8827839 C69.4733214,54.010063 70.2076661,52.645038 70.2076661,51.1121821 L70.2076661,50.6702273 C70.2076661,49.6856191 69.9026306,48.7681433 69.3829405,48.0073097 C70.2528566,47.1457776 70.7951419,45.9541779 70.7951419,44.6395022 L70.7951419,44.1919531 L70.7894931,44.1919531 Z" id="路径" fill="#FFFFFF" transform="translate(53.295142, 44.172212) rotate(-6.000000) translate(-53.295142, -44.172212) "></path>
                        <path d="M38.2485637,71.1722117 L23.3417202,71.1722117 C22.4897455,71.1722117 21.7951419,70.4513557 21.7951419,69.5671807 L21.7951419,42.7772427 C21.7951419,41.8930677 22.4897455,41.1722117 23.3417202,41.1722117 L38.2485637,41.1722117 C39.1005384,41.1722117 39.7951419,41.8930677 39.7951419,42.7772427 L39.7951419,69.5671807 C39.7951419,70.4513557 39.1005384,71.1722117 38.2485637,71.1722117 Z" id="路径" fill="url(#linearGradient-4)" transform="translate(30.795142, 56.172212) rotate(-6.000000) translate(-30.795142, -56.172212) "></path>
                        <path d="M38.2485637,71.1722117 L23.3417202,71.1722117 C22.4897455,71.1722117 21.7951419,70.4513557 21.7951419,69.5671807 L21.7951419,42.7772427 C21.7951419,41.8930677 22.4897455,41.1722117 23.3417202,41.1722117 L38.2485637,41.1722117 C39.1005384,41.1722117 39.7951419,41.8930677 39.7951419,42.7772427 L39.7951419,69.5671807 C39.7951419,70.4513557 39.1005384,71.1722117 38.2485637,71.1722117 Z" id="路径" fill="#5B79FB" transform="translate(30.795142, 56.172212) rotate(-6.000000) translate(-30.795142, -56.172212) "></path>
                        <path d="M70.7862758,43.9796648 C70.7862758,41.3254083 68.6548073,39.1737664 66.0254366,39.1737664 L61.3143677,39.1097833 C61.3870949,39.8947656 61.4939681,40.7550256 61.4939681,41.5625972 C61.4939681,53.3542726 53.5347068,62.9480528 42.765476,65.8507928 L61.2981639,66.1737664 C63.9275345,66.1737664 66.0590031,64.0221245 66.0590031,61.3678681 L66.0590031,60.9669059 C67.5638982,60.1593343 68.5876744,58.5611331 68.5876744,56.7200956 L68.5876744,56.2739547 C68.5876744,55.7487507 68.5037583,55.2461362 68.3527094,54.7774058 C69.4827793,53.8964186 70.210052,52.5184642 70.210052,50.9710891 L70.210052,50.5249482 C70.210052,49.5310138 69.9079541,48.6048478 69.3932688,47.8368076 C70.2548073,46.9671151 70.7918702,45.7642287 70.7918702,44.4371004 L70.7918702,43.9796648 L70.7862758,43.9796648 Z" id="路径" fill="#C7D8FF" transform="translate(56.778673, 52.641775) rotate(-6.000000) translate(-56.778673, -52.641775) "></path>
                        <path d="M37.7951419,65.6722117 C37.7951419,67.0545011 36.6774313,68.1722117 35.2951419,68.1722117 C33.9128525,68.1722117 32.7951419,67.0545011 32.7951419,65.6722117 C32.7951419,64.2899223 33.9128525,63.1722117 35.2951419,63.1722117 C36.6774313,63.1722117 37.7951419,64.2899223 37.7951419,65.6722117 Z" id="路径" fill="#FFFFFF" transform="translate(35.295142, 65.672212) rotate(-6.000000) translate(-35.295142, -65.672212) "></path>
                    </g>
                    <g id="点赞-(24)" transform="translate(113.062469, 96.948571) rotate(-6.000000) translate(-113.062469, -96.948571) translate(9.062469, 10.948571)">
                        <g id="分组" transform="translate(0.000000, 0.000000)">
                            <path d="M37.6638472,38.5782924 C37.3618971,37.5250008 36.8670344,37.5250008 36.5734719,38.5782924 L34.8875838,44.5268817 C34.5856337,45.5801733 33.6210709,46.7337783 32.7403832,47.0949068 L27.8001441,49.1011764 C26.9194563,49.4623049 26.9194563,50.0541544 27.8001441,50.415283 L32.7068331,52.461678 C33.5875209,52.8228065 34.5520837,53.9864428 34.8540338,55.0397344 L36.5650844,60.9983551 C36.8670344,62.0516466 37.3618971,62.0516466 37.6554597,60.9983551 L39.3245727,55.0698284 C39.6181353,54.0165369 40.5826981,52.8529005 41.4633859,52.491772 L46.4791124,50.4353457 C47.3598002,50.0742171 47.3598002,49.492399 46.4791124,49.1312704 L41.5472609,47.1350322 C40.6665731,46.7739037 39.6936228,45.63033 39.3916727,44.5770385 L37.6638472,38.5782924 Z" id="路径" fill="url(#linearGradient-5)" transform="translate(37.139628, 49.788324) rotate(6.000000) translate(-37.139628, -49.788324) "></path>
                            <path d="M193.532425,107.45362 C193.305963,106.663651 192.934816,106.663651 192.714644,107.45362 L191.450228,111.915062 C191.223765,112.70503 190.500343,113.570234 189.839827,113.84108 L186.134648,115.345783 C185.474132,115.616629 185.474132,116.060516 186.134648,116.331363 L189.814665,117.866159 C190.475181,118.137005 191.198603,119.009732 191.425065,119.799701 L192.708353,124.268667 C192.934816,125.058635 193.305963,125.058635 193.526135,124.268667 L194.77797,119.822272 C194.998141,119.032303 195.721564,118.159576 196.382079,117.888729 C196.822423,117.708165 198.076355,117.194058 200.143874,116.34641 C200.80439,116.075563 200.80439,115.6392 200.143874,115.368353 L196.444986,113.871174 C195.78447,113.600328 195.054757,112.742648 194.828295,111.952679 L193.532425,107.45362 Z" id="路径" fill="url(#linearGradient-6)" transform="translate(193.139261, 115.861143) rotate(6.000000) translate(-193.139261, -115.861143) "></path>
                            <path d="M91.4394641,1.75726169 C91.2130016,0.967293034 90.8418546,0.967293034 90.6216826,1.75726169 L89.3572666,6.21870369 C89.130804,7.00867234 88.4073819,7.87387611 87.7468661,8.1447225 L84.0416868,9.6494247 C83.381171,9.92027109 83.381171,10.3641582 84.0416868,10.6350046 L87.7217036,12.1698009 C88.3822194,12.4406473 89.1056415,13.3133745 89.3321041,14.1033432 L90.615392,18.5723087 C90.8418546,19.3622774 91.2130016,19.3622774 91.4331735,18.5723087 L92.6850083,14.1259137 C92.9051802,13.3359451 93.6286023,12.4632178 94.2891182,12.1923714 L98.0509131,10.6500517 C98.7114289,10.3792053 98.7114289,9.94284162 98.0509131,9.67199523 L94.3520244,8.17481654 C93.6915086,7.90397015 92.9617959,7.0462899 92.7353333,6.25632125 L91.4394641,1.75726169 Z" id="路径" fill="url(#linearGradient-7)" transform="translate(91.046300, 10.164785) rotate(6.000000) translate(-91.046300, -10.164785) "></path>
                            <path d="M187.61969,36.9190107 C187.272448,35.6901706 186.703356,35.6901706 186.365759,36.9190107 L184.426987,43.8590316 C184.079745,45.0878718 182.970498,46.4337443 181.957707,46.8550609 L176.276432,49.1957088 C175.263641,49.6170254 175.263641,50.3075165 176.276432,50.7288331 L181.919124,53.1162939 C182.931915,53.5376105 184.041162,54.8951863 184.388405,56.1240264 L186.356113,63.0757506 C186.703356,64.3045907 187.272448,64.3045907 187.610045,63.0757506 L189.529525,56.1591361 C189.867122,54.930296 190.976369,53.5727203 191.98916,53.1514036 L197.757245,50.7522396 C198.770036,50.330923 198.770036,49.6521351 197.757245,49.2308185 L192.085616,46.9018739 C191.072825,46.4805572 189.953932,45.146388 189.60669,43.9175478 L187.61969,36.9190107 Z" id="路径" fill="url(#linearGradient-5)" transform="translate(187.016839, 49.997381) rotate(6.000000) translate(-187.016839, -49.997381) "></path>
                            <path d="M19.5035794,97.709423 C19.0204592,96.1294857 18.228679,96.1294857 17.7589788,97.709423 L15.061558,106.632307 C14.5784378,108.212244 13.0351374,109.942652 11.6260369,110.484345 L3.72165444,113.493749 C2.312554,114.035442 2.312554,114.923216 3.72165444,115.464909 L11.5723569,118.534501 C12.9814573,119.076194 14.5247578,120.821649 15.007878,122.401586 L17.7455588,131.339517 C18.228679,132.919454 19.0204592,132.919454 19.4901594,131.339517 L22.1607402,122.446727 C22.6304404,120.86679 24.1737408,119.121335 25.5828413,118.579642 L33.6080038,115.495003 C35.0171042,114.95331 35.0171042,114.080583 33.6080038,113.53889 L25.7170413,110.544533 C24.3079409,110.00284 22.7512204,108.287479 22.2681002,106.707542 L19.5035794,97.709423 Z" id="路径" fill="url(#linearGradient-8)" transform="translate(18.664829, 114.524470) rotate(6.000000) translate(-18.664829, -114.524470) "></path>
                            <path d="M155.328917,136.692241 C154.875992,135.200078 154.133698,135.200078 153.693354,136.692241 L151.164522,145.119409 C150.711597,146.611572 149.264753,148.245846 147.943721,148.757445 L140.533363,151.59966 C139.212331,152.111259 139.212331,152.949712 140.533363,153.461311 L147.893396,156.360371 C149.214428,156.871969 150.661272,158.520454 151.114197,160.012617 L153.680773,168.453996 C154.133698,169.946159 154.875992,169.946159 155.316336,168.453996 L157.820005,160.05525 C158.260349,158.563087 159.707194,156.914603 161.028225,156.403004 L168.551815,153.489733 C169.872847,152.978134 169.872847,152.153892 168.551815,151.642293 L161.154038,148.814289 C159.833006,148.30269 158.373581,146.682628 157.920655,145.190465 L155.328917,136.692241 Z" id="路径" fill="url(#linearGradient-5)" transform="translate(154.542589, 152.573119) rotate(6.000000) translate(-154.542589, -152.573119) "></path>
                        </g>
                    </g>
                    <g id="分组-6" transform="translate(134.000000, 56.000000)" fill="url(#linearGradient-9)">
                        <text id="50" fill-rule="nonzero" font-family="PingFangSC-Semibold, PingFang SC" font-size="26" font-weight="500" letter-spacing="0.8125">
                            <tspan x="18.0875" y="28">50</tspan>
                        </text>
                        <path d="M14.9618001,20.0423862 C15.5353218,20.0423862 16,19.577708 16,19.0041863 C16,18.4306646 15.5353218,17.9659864 14.9618001,17.9659864 L9.03401361,17.9659864 L9.03401361,12.0381999 C9.03401361,11.4646782 8.56933543,11 7.99581371,11 C7.71533229,11 7.46415489,11.1130298 7.27995814,11.288854 L7.25065411,11.318158 C7.07064364,11.5023548 6.9618001,11.7577185 6.9618001,12.0340136 L6.9618001,17.9618001 L1.03401361,17.9618001 C0.757718472,17.9618001 0.502354788,18.0748299 0.318158032,18.2506541 L0.288854003,18.2799581 C0.108843537,18.4641549 0,18.7195186 0,18.9958137 C0,19.2804814 0.117216117,19.5400314 0.305599163,19.7284144 C0.493982208,19.9167975 0.753532182,20.0340136 1.0381999,20.0340136 L6.96598639,20.0340136 L6.96598639,25.9618001 C6.96598639,26.2464678 7.08320251,26.5060178 7.27158556,26.6944008 C7.4599686,26.8827839 7.71951858,27 8.00418629,27 C8.57770801,27 9.04238619,26.5353218 9.04238619,25.9618001 L9.03401361,20.0423862 L14.9618001,20.0423862 Z" id="路径"></path>
                    </g>
                </g>
            </g>
        </g>
    </g>
</svg>