<?xml version="1.0" encoding="UTF-8"?>
<svg width="55px" height="54px" viewBox="0 0 55 54" version="1.1" xmlns="http://www.w3.org/2000/svg" xmlns:xlink="http://www.w3.org/1999/xlink">
    <!-- Generator: Sketch 52.2 (67145) - http://www.bohemiancoding.com/sketch -->
    <title>微信</title>
    <desc>Created with Sketch.</desc>
    <defs>
        <ellipse id="path-1" cx="23.1265823" cy="23" rx="23.1265823" ry="23"></ellipse>
        <filter x="-14.1%" y="-12.0%" width="128.1%" height="128.3%" filterUnits="objectBoundingBox" id="filter-2">
            <feOffset dx="0" dy="1" in="SourceAlpha" result="shadowOffsetOuter1"></feOffset>
            <feGaussianBlur stdDeviation="2" in="shadowOffsetOuter1" result="shadowBlurOuter1"></feGaussianBlur>
            <feColorMatrix values="0 0 0 0 0.68627451   0 0 0 0 0.68627451   0 0 0 0 0.68627451  0 0 0 0.5 0" type="matrix" in="shadowBlurOuter1"></feColorMatrix>
        </filter>
    </defs>
    <g id="详情-解决方案" stroke="none" stroke-width="1" fill="none" fill-rule="evenodd">
        <g transform="translate(-269.000000, -217.000000)" id="Group-2">
            <g transform="translate(272.000000, 220.000000)">
                <g id="Group">
                    <g id="微信" transform="translate(1.000000, 0.000000)">
                        <g id="Oval-2">
                            <use fill="black" fill-opacity="1" filter="url(#filter-2)" xlink:href="#path-1"></use>
                            <use fill="#FFFFFF" fill-rule="evenodd" xlink:href="#path-1"></use>
                        </g>
                        <g id="点赞-(24)" transform="translate(28.708549, 19.938789) rotate(-6.000000) translate(-28.708549, -19.938789) translate(10.708549, 5.438789)">
                            <path d="M25.1016234,16.0153488 C25.1016234,14.7006731 23.9947802,13.6349466 22.6293832,13.6349466 L16.4153742,13.6349466 C16.9557228,11.9818119 17.8940701,8.21400731 15.482837,5.69934041 C13.8676014,4.01543666 12.3540443,5.92591218 12.3540443,5.92591218 C12.3540443,5.92591218 14.001236,12.7286596 7.10452846,15.7384277 L7.10452846,27.0054781 L20.1745737,27.0054781 C21.5399707,27.0054781 22.6468138,25.9397516 22.6468138,24.625076 L22.6468138,24.426476 C23.4282857,24.0264789 23.959919,23.2348763 23.959919,22.3229949 L23.959919,22.1020175 C23.959919,21.8418796 23.9163425,21.5929303 23.8379048,21.3607642 C24.424735,20.9244038 24.8023981,20.2418913 24.8023981,19.4754633 L24.8023981,19.2544859 C24.8023981,18.7621818 24.6455227,18.3034439 24.3782534,17.9230271 C24.8256389,17.4922611 25.1045285,16.8964612 25.1045285,16.2391234 L25.1045285,16.0153488 L25.1016234,16.0153488 Z" id="路径" fill="#E5ECFF"></path>
                            <path d="M8.33123935,28.0054781 L0.87781758,28.0054781 C0.451830242,28.0054781 0.104528463,27.6450501 0.104528463,27.2029626 L0.104528463,13.8079936 C0.104528463,13.3659061 0.451830242,13.0054781 0.87781758,13.0054781 L8.33123935,13.0054781 C8.75722668,13.0054781 9.10452846,13.3659061 9.10452846,13.8079936 L9.10452846,27.2029626 C9.10452846,27.6450501 8.75722668,28.0054781 8.33123935,28.0054781 Z" id="路径" fill="#5B79FB"></path>
                            <path d="M22.6806777,13.6922203 L20.0699164,13.6362495 C20.1062801,14.0142039 20.351049,14.761347 20.351049,15.1501778 C20.351049,20.8276511 16.3846154,25.6023844 11,27 L20.2531469,27 C21.5678322,27 22.6335664,25.9640243 22.6335664,24.6860489 L22.6335664,24.4929931 C23.386014,24.1041623 23.8979021,23.334658 23.8979021,22.4482326 L23.8979021,22.233424 C23.8979021,21.980548 23.8559441,21.7385484 23.7804196,21.5128634 C24.3454545,21.0886844 24.7090909,20.4252248 24.7090909,19.6801924 L24.7090909,19.4653838 C24.7090909,18.9868228 24.558042,18.540891 24.3006993,18.1710939 C24.7314685,17.7523531 25,17.1731855 25,16.5341979 L25,16.3139511 C24.9972028,15.0359757 23.995363,13.6922203 22.6806777,13.6922203 Z" id="路径" fill="#C7D8FF"></path>
                            <path d="M8.10452846,25.0054781 C8.10452846,25.5583939 7.65744423,26.0054781 7.10452846,26.0054781 C6.5516127,26.0054781 6.10452846,25.5583939 6.10452846,25.0054781 C6.10452846,24.4525623 6.5516127,24.0054781 7.10452846,24.0054781 C7.65744423,24.0054781 8.10452846,24.4525623 8.10452846,25.0054781 Z" id="路径" fill="#FFFFFF"></path>
                            <path d="M30.7828423,0.53242815 C30.6167697,-0.0381047656 30.3445953,-0.0381047656 30.1831359,0.53242815 L29.2558974,3.75458071 C29.0898249,4.32511363 28.5593154,4.94998301 28.0749371,5.14559429 L25.3578056,6.23232366 C24.8734273,6.42793494 24.8734273,6.7485201 25.3578056,6.94413139 L28.0564846,8.05259534 C28.5408628,8.24820662 29.0713724,8.87850965 29.2374449,9.44904257 L30.1785227,12.6766288 C30.3445953,13.2471617 30.6167697,13.2471617 30.7782292,12.6766288 L31.6962413,9.46534351 C31.8577008,8.89481059 32.3882103,8.26450756 32.8725886,8.06889628 L35.6312382,6.95499868 C36.1156165,6.7593874 36.1156165,6.44423588 35.6312382,6.2486246 L32.9187198,5.16732888 C32.4343416,4.9717176 31.8992189,4.35228186 31.7331463,3.78174894 L30.7828423,0.53242815 Z" id="路径" fill="#FF7E71"></path>
                        </g>
                    </g>
                </g>
            </g>
        </g>
    </g>
</svg>