<?xml version="1.0" encoding="UTF-8"?>
<svg width="102px" height="102px" viewBox="0 0 102 102" version="1.1" xmlns="http://www.w3.org/2000/svg" xmlns:xlink="http://www.w3.org/1999/xlink">
    <!-- Generator: Sketch 52.2 (67145) - http://www.bohemiancoding.com/sketch -->
    <title>分组 2</title>
    <desc>Created with Sketch.</desc>
    <defs>
        <path d="M0,47 C3.17886263e-15,72.9573832 21.0426168,94 47,94 C72.9573832,94 94,72.9573832 94,47 C94,21.0426168 72.9573832,1.58943132e-15 47,0 C21.0426168,-1.58943132e-15 3.17886263e-15,21.0426168 0,47 Z" id="path-1"></path>
        <filter x="-6.9%" y="-5.9%" width="113.8%" height="113.8%" filterUnits="objectBoundingBox" id="filter-2">
            <feOffset dx="0" dy="1" in="SourceAlpha" result="shadowOffsetOuter1"></feOffset>
            <feGaussianBlur stdDeviation="2" in="shadowOffsetOuter1" result="shadowBlurOuter1"></feGaussianBlur>
            <feColorMatrix values="0 0 0 0 0.68627451   0 0 0 0 0.68627451   0 0 0 0 0.68627451  0 0 0 0.5 0" type="matrix" in="shadowBlurOuter1"></feColorMatrix>
        </filter>
        <linearGradient x1="50%" y1="0%" x2="50%" y2="100%" id="linearGradient-3">
            <stop stop-color="#A9C5FF" offset="0%"></stop>
            <stop stop-color="#427FFF" offset="74.2074603%"></stop>
        </linearGradient>
    </defs>
    <g id="写字详情" stroke="none" stroke-width="1" fill="none" fill-rule="evenodd">
        <g id="点赞" transform="translate(-159.000000, -199.000000)">
            <g id="分组-5" transform="translate(163.000000, 202.000000)">
                <g id="分组-2">
                    <g id="路径">
                        <use fill="black" fill-opacity="1" filter="url(#filter-2)" xlink:href="#path-1"></use>
                        <use fill="#FFFFFF" fill-rule="evenodd" xlink:href="#path-1"></use>
                    </g>
                    <path d="M70.7894931,44.1919531 C70.7894931,41.5626017 68.6372982,39.4311488 65.9823595,39.4311488 L53.8995641,39.4311488 C54.950242,36.1248793 56.7748062,28.5892701 52.0862975,23.5599363 C48.9455615,20.1921288 46.0025338,24.0130798 46.0025338,24.0130798 C46.0025338,24.0130798 49.2054066,37.6185746 35.7951419,43.638111 L35.7951419,66.1722117 L61.2091187,66.1722117 C63.8640574,66.1722117 66.0162523,64.0407588 66.0162523,61.4114074 L66.0162523,61.0142075 C67.535781,60.2142134 68.5695125,58.6310082 68.5695125,56.8072453 L68.5695125,56.3652905 C68.5695125,55.8450146 68.4847804,55.3471161 68.3322626,54.8827839 C69.4733214,54.010063 70.2076661,52.645038 70.2076661,51.1121821 L70.2076661,50.6702273 C70.2076661,49.6856191 69.9026306,48.7681433 69.3829405,48.0073097 C70.2528566,47.1457776 70.7951419,45.9541779 70.7951419,44.6395022 L70.7951419,44.1919531 L70.7894931,44.1919531 Z" id="路径" fill="#E5ECFF" transform="translate(53.295142, 44.172212) rotate(-6.000000) translate(-53.295142, -44.172212) "></path>
                    <path d="M38.2485637,71.1722117 L23.3417202,71.1722117 C22.4897455,71.1722117 21.7951419,70.4513557 21.7951419,69.5671807 L21.7951419,42.7772427 C21.7951419,41.8930677 22.4897455,41.1722117 23.3417202,41.1722117 L38.2485637,41.1722117 C39.1005384,41.1722117 39.7951419,41.8930677 39.7951419,42.7772427 L39.7951419,69.5671807 C39.7951419,70.4513557 39.1005384,71.1722117 38.2485637,71.1722117 Z" id="路径" fill="url(#linearGradient-3)" transform="translate(30.795142, 56.172212) rotate(-6.000000) translate(-30.795142, -56.172212) "></path>
                    <path d="M38.2485637,71.1722117 L23.3417202,71.1722117 C22.4897455,71.1722117 21.7951419,70.4513557 21.7951419,69.5671807 L21.7951419,42.7772427 C21.7951419,41.8930677 22.4897455,41.1722117 23.3417202,41.1722117 L38.2485637,41.1722117 C39.1005384,41.1722117 39.7951419,41.8930677 39.7951419,42.7772427 L39.7951419,69.5671807 C39.7951419,70.4513557 39.1005384,71.1722117 38.2485637,71.1722117 Z" id="路径" fill="#5B79FB" transform="translate(30.795142, 56.172212) rotate(-6.000000) translate(-30.795142, -56.172212) "></path>
                    <path d="M70.7862758,43.9796648 C70.7862758,41.3254083 68.6548073,39.1737664 66.0254366,39.1737664 L61.3143677,39.1097833 C61.3870949,39.8947656 61.4939681,40.7550256 61.4939681,41.5625972 C61.4939681,53.3542726 53.5347068,62.9480528 42.765476,65.8507928 L61.2981639,66.1737664 C63.9275345,66.1737664 66.0590031,64.0221245 66.0590031,61.3678681 L66.0590031,60.9669059 C67.5638982,60.1593343 68.5876744,58.5611331 68.5876744,56.7200956 L68.5876744,56.2739547 C68.5876744,55.7487507 68.5037583,55.2461362 68.3527094,54.7774058 C69.4827793,53.8964186 70.210052,52.5184642 70.210052,50.9710891 L70.210052,50.5249482 C70.210052,49.5310138 69.9079541,48.6048478 69.3932688,47.8368076 C70.2548073,46.9671151 70.7918702,45.7642287 70.7918702,44.4371004 L70.7918702,43.9796648 L70.7862758,43.9796648 Z" id="路径" fill="#C7D8FF" transform="translate(56.778673, 52.641775) rotate(-6.000000) translate(-56.778673, -52.641775) "></path>
                    <path d="M37.7951419,65.6722117 C37.7951419,67.0545011 36.6774313,68.1722117 35.2951419,68.1722117 C33.9128525,68.1722117 32.7951419,67.0545011 32.7951419,65.6722117 C32.7951419,64.2899223 33.9128525,63.1722117 35.2951419,63.1722117 C36.6774313,63.1722117 37.7951419,64.2899223 37.7951419,65.6722117 Z" id="路径" fill="#FFFFFF" transform="translate(35.295142, 65.672212) rotate(-6.000000) translate(-35.295142, -65.672212) "></path>
                </g>
            </g>
        </g>
    </g>
</svg>