<?xml version="1.0" encoding="UTF-8"?>
<svg width="55px" height="54px" viewBox="0 0 55 54" version="1.1" xmlns="http://www.w3.org/2000/svg" xmlns:xlink="http://www.w3.org/1999/xlink">
    <!-- Generator: Sketch 52.2 (67145) - http://www.bohemiancoding.com/sketch -->
    <title>微信</title>
    <desc>Created with Sketch.</desc>
    <defs>
        <ellipse id="path-1" cx="23.1265823" cy="23" rx="23.1265823" ry="23"></ellipse>
        <filter x="-14.1%" y="-12.0%" width="128.1%" height="128.3%" filterUnits="objectBoundingBox" id="filter-2">
            <feOffset dx="0" dy="1" in="SourceAlpha" result="shadowOffsetOuter1"></feOffset>
            <feGaussianBlur stdDeviation="2" in="shadowOffsetOuter1" result="shadowBlurOuter1"></feGaussianBlur>
            <feColorMatrix values="0 0 0 0 0.68627451   0 0 0 0 0.68627451   0 0 0 0 0.68627451  0 0 0 0.5 0" type="matrix" in="shadowBlurOuter1"></feColorMatrix>
        </filter>
    </defs>
    <g id="详情-解决方案" stroke="none" stroke-width="1" fill="none" fill-rule="evenodd">
        <g transform="translate(-269.000000, -364.000000)" id="Group-2">
            <g transform="translate(272.000000, 220.000000)">
                <g id="Group">
                    <g id="微信" transform="translate(1.000000, 147.000000)">
                        <g id="Oval-2">
                            <use fill="black" fill-opacity="1" filter="url(#filter-2)" xlink:href="#path-1"></use>
                            <use fill="#FFFFFF" fill-rule="evenodd" xlink:href="#path-1"></use>
                        </g>
                        <g transform="translate(11.012658, 13.142857)" fill="#B2BAC1" fill-rule="nonzero" id="Shape">
                            <path d="M17.1293411,6.29820871 C17.4196212,6.29820871 17.7068323,6.31970766 17.9917279,6.35169446 C17.2168633,2.71255217 13.3593369,0.00870334783 8.95623776,0.00870334783 C4.03359562,0.00870334783 0.00120159052,3.39295375 0.00120159052,7.6903556 C0.00120159052,10.1709193 1.34275661,12.2079178 3.58457813,13.7878612 L2.68891657,16.5049426 L5.81942126,14.9215822 C6.93959303,15.145218 7.83832645,15.3751355 8.9562117,15.3751355 C9.23722401,15.3751355 9.51586289,15.3611429 9.79218626,15.3392347 C9.61722878,14.7353642 9.51586577,14.1028683 9.51586577,13.4466227 C9.51588892,9.50059349 12.8755667,6.29820871 17.1293411,6.29820871 Z M12.3143506,3.84931026 C12.9886318,3.84931026 13.4353048,4.2967281 13.4353048,4.97640186 C13.4353048,5.65335716 12.9886318,6.10699816 12.3143506,6.10699816 C11.6431674,6.10699816 10.9696976,5.65335716 10.9696976,4.97640186 C10.9696976,4.29669887 11.6431674,3.84931026 12.3143506,3.84931026 Z M6.04705548,6.10696599 C5.37595919,6.10696599 4.69858004,5.65332499 4.69858004,4.97636968 C4.69858004,4.29669887 5.37593018,3.84927809 6.04705548,3.84927809 C6.71820973,3.84927809 7.16491175,4.29669593 7.16491175,4.97636968 C7.16491175,5.6533279 6.71820973,6.10696599 6.04705548,6.10696599 Z M25.3025024,13.3381049 C25.3025024,9.72700622 21.7198214,6.78351206 17.6960286,6.78351206 C13.4352729,6.78351206 10.0795075,9.72700331 10.0795075,13.3381049 C10.0795075,16.9554267 13.4353048,19.8926977 17.6960286,19.8926977 C18.5878098,19.8926977 19.4872967,19.6658787 20.3829582,19.439466 L22.8392107,20.7960921 L22.1657409,18.538904 C23.9632368,17.178741 25.3025024,15.3751063 25.3025024,13.3381049 Z M15.2265439,12.2079178 C14.7806533,12.2079178 14.3308823,11.7605 14.3308823,11.3041435 C14.3308823,10.8540949 14.7806533,10.400866 15.2265439,10.400866 C15.903894,10.400866 16.3474981,10.8540978 16.3474981,11.3041435 C16.3474981,11.7605 15.9038941,12.2079178 15.2265439,12.2079178 Z M20.152284,12.2079178 C19.7094624,12.2079178 19.2627894,11.7605 19.2627894,11.3041435 C19.2627894,10.8540949 19.7094624,10.400866 20.152284,10.400866 C20.8234382,10.400866 21.2731513,10.8540978 21.2731513,11.3041435 C21.2731802,11.7605 20.8234643,12.2079178 20.152284,12.2079178 Z"></path>
                        </g>
                    </g>
                </g>
            </g>
        </g>
    </g>
</svg>