<?xml version="1.0" encoding="UTF-8"?>
<svg width="54px" height="54px" viewBox="0 0 54 54" version="1.1" xmlns="http://www.w3.org/2000/svg" xmlns:xlink="http://www.w3.org/1999/xlink">
    <!-- Generator: Sketch 52.2 (67145) - http://www.bohemiancoding.com/sketch -->
    <title>微博</title>
    <desc>Created with Sketch.</desc>
    <defs>
        <ellipse id="path-1" cx="23.8734177" cy="23" rx="23.1265823" ry="23"></ellipse>
        <filter x="-14.1%" y="-12.0%" width="128.1%" height="128.3%" filterUnits="objectBoundingBox" id="filter-2">
            <feOffset dx="0" dy="1" in="SourceAlpha" result="shadowOffsetOuter1"></feOffset>
            <feGaussianBlur stdDeviation="2" in="shadowOffsetOuter1" result="shadowBlurOuter1"></feGaussianBlur>
            <feColorMatrix values="0 0 0 0 0.685400723   0 0 0 0 0.685400723   0 0 0 0 0.685400723  0 0 0 0.5 0" type="matrix" in="shadowBlurOuter1"></feColorMatrix>
        </filter>
    </defs>
    <g id="详情-解决方案" stroke="none" stroke-width="1" fill="none" fill-rule="evenodd">
        <g transform="translate(-270.000000, -488.000000)" id="Group-2">
            <g transform="translate(272.000000, 220.000000)">
                <g id="Group">
                    <g id="微博" transform="translate(1.000000, 271.000000)">
                        <g id="Oval-2-Copy-4">
                            <use fill="black" fill-opacity="1" filter="url(#filter-2)" xlink:href="#path-1"></use>
                            <use fill="#FFFFFF" fill-rule="evenodd" xlink:href="#path-1"></use>
                        </g>
                        <g id="weibo" transform="translate(10.658228, 12.047619)" fill="#B2BAC1" fill-rule="nonzero">
                            <path d="M9.530185,15.9654336 C9.7278481,15.6405833 9.77961701,15.3109559 9.68549172,14.9765512 C9.59136644,14.6421466 9.37958455,14.4032861 9.05014606,14.2599698 C8.73012009,14.126208 8.3865628,14.1214308 8.0194742,14.2456382 C7.65238559,14.3698456 7.37000974,14.5895973 7.17234664,14.9048931 C6.96527102,15.2297433 6.90408958,15.5569822 6.98880234,15.8866096 C7.07351509,16.216237 7.27588445,16.4574861 7.59591042,16.6103568 C7.91593638,16.7632275 8.26655307,16.7751705 8.64776047,16.6461859 C9.02896787,16.5172012 9.32310938,16.2902838 9.530185,15.9654336 Z M10.8573515,14.2313066 C10.9326517,14.1070991 10.9491237,13.9805031 10.9067673,13.8515184 C10.8644109,13.7225338 10.7820513,13.6341554 10.6596884,13.5863833 C10.527913,13.5386112 10.3937845,13.5624973 10.2573028,13.6580415 C10.1208212,13.7535856 10.0196365,13.841964 9.95374878,13.9231766 C9.7937358,14.2193635 9.85491723,14.434338 10.1372931,14.5680998 C10.2690685,14.6158719 10.4055501,14.639758 10.5467381,14.639758 C10.687926,14.639758 10.7914638,14.5513796 10.8573515,14.3746229 L10.8573515,14.2313066 Z M13.3140214,15.7647908 C12.8904576,16.7393415 12.1468679,17.4559229 11.0832522,17.914535 C10.0196365,18.3731471 8.9654333,18.4304736 7.92064265,18.0865145 C6.91350211,17.7616643 6.21932814,17.1573473 5.83812074,16.2735636 C5.45691334,15.3897798 5.48750406,14.4940531 5.92989289,13.5863833 C6.37228173,12.6978224 7.08528075,12.0337903 8.06888997,11.594287 C9.05249919,11.1547838 10.0431678,11.0640168 11.0408958,11.3219861 C12.0856865,11.5990642 12.8316293,12.1699407 13.2787244,13.0346156 C13.7258195,13.8992905 13.7375852,14.8093489 13.3140214,15.7647908 Z M17.7190847,13.4717303 C17.634372,12.5545061 17.2155144,11.7423805 16.4625122,11.0353535 C15.7095099,10.3283266 14.7282538,9.80761074 13.5187439,9.47320609 C12.309234,9.13880143 11.0173645,9.03848004 9.64313535,9.1722419 C7.54414151,9.39199353 5.80517689,10.0679686 4.42624148,11.2001673 C3.04730607,12.3323659 2.42372606,13.5959377 2.55550146,14.9908829 C2.64021422,15.908107 3.05907173,16.7202326 3.812074,17.4272596 C4.56507627,18.1342866 5.54633236,18.6550024 6.75584226,18.9894071 C7.96535216,19.3238117 9.25722168,19.4241331 10.6314508,19.2903712 C12.7304447,19.0706196 14.4694093,18.3946445 15.8483447,17.2624459 C17.2272801,16.1302473 17.8508601,14.8666754 17.7190847,13.4717303 Z M22.0676728,13.5290568 C22.0676728,14.1787573 21.8935411,14.845178 21.5452775,15.5283189 C21.197014,16.2114598 20.6840312,16.8659375 20.0063291,17.4917519 C19.3286271,18.1175664 18.5356216,18.6788885 17.6273126,19.1757182 C16.7190036,19.672548 15.6553879,20.0690564 14.4364654,20.3652433 C13.217543,20.6614303 11.9444985,20.8095238 10.617332,20.8095238 C9.29016553,20.8095238 7.99594288,20.6494873 6.73466407,20.3294143 C5.47338526,20.0093412 4.34152872,19.5650608 3.33909445,18.9965729 C2.33666018,18.428085 1.52953586,17.7067264 0.917721519,16.832497 C0.305907173,15.9582677 0,15.0052145 0,13.9733373 C0,12.8745791 0.327085362,11.7041628 0.981256086,10.4620884 C1.63542681,9.22001399 2.56491399,7.98749399 3.76971762,6.7645284 C5.36043492,5.14983165 6.96762415,4.02241025 8.5912853,3.3822642 C10.2149464,2.74211815 11.3750406,2.77555862 12.0715677,3.4825856 C12.683382,4.09406839 12.7775073,5.09250514 12.3539435,6.47789584 C12.3162934,6.6116577 12.3115871,6.70720189 12.3398247,6.7645284 C12.3680623,6.82185491 12.415125,6.85529538 12.4810127,6.8648498 C12.5469004,6.87440422 12.6151412,6.89829026 12.6857352,6.93650794 C12.7563291,6.97472561 12.8198637,6.95800538 12.8763389,6.88634724 L12.9610516,6.85768398 C14.2693931,6.29397328 15.427134,6.01211793 16.4342746,6.01211793 C17.4414151,6.01211793 18.1614735,6.3035277 18.5944499,6.88634724 C19.0180136,7.48827561 19.0180136,8.33861887 18.5944499,9.43737702 C18.5756248,9.56158446 18.5544466,9.65712865 18.5309153,9.72400958 C18.507384,9.79089051 18.5285622,9.85060562 18.5944499,9.90315493 C18.6603376,9.95570423 18.7168127,9.9915333 18.7638754,10.0106421 C18.810938,10.029751 18.8909445,10.0584142 19.0038948,10.0966319 C19.540409,10.2686114 20.0251542,10.4931403 20.4581305,10.7702184 C20.8911068,11.0472966 21.2676079,11.4366391 21.5876339,11.9382461 C21.9076599,12.4398531 22.0676728,12.996398 22.0676728,13.6078808 L22.0676728,13.5290568 Z M21.0228822,4.58612095 C21.4182084,5.03517863 21.6746998,5.55350584 21.7923564,6.14110258 C21.910013,6.72869933 21.8794223,7.29002143 21.7005842,7.82506887 C21.625284,8.0448205 21.4864492,8.20724562 21.2840798,8.31234422 C21.0817105,8.41744283 20.8722817,8.43655166 20.6557936,8.36967073 C20.4393054,8.29323538 20.2792924,8.15230771 20.1757546,7.94688771 C20.0722168,7.74146771 20.0533918,7.52888189 20.1192795,7.30913026 C20.30753,6.70720189 20.1945797,6.17693165 19.7804284,5.71831956 C19.3662772,5.25970746 18.8627069,5.09250514 18.2697176,5.21671258 C18.0438169,5.26448467 17.8320351,5.226267 17.634372,5.10205956 C17.4367089,4.97785211 17.3190523,4.80109537 17.2814021,4.57178932 C17.2343395,4.34248327 17.2719896,4.12989746 17.3943525,3.93403188 C17.5167154,3.73816629 17.6908471,3.61634746 17.9167478,3.56857536 C18.4814995,3.44436792 19.041545,3.47064257 19.5968841,3.64739932 C20.1522233,3.82415606 20.627556,4.13706327 21.0228822,4.58612095 Z M23.5783836,2.25006559 C24.3972736,3.16728978 24.9267283,4.23021886 25.1667478,5.43885281 C25.4067673,6.64748677 25.3432327,7.80118282 24.9761441,8.89994097 C24.8914314,9.15791027 24.7314184,9.34899864 24.4961052,9.47320609 C24.260792,9.59741353 24.0160662,9.61652237 23.7619279,9.5305326 C23.5077897,9.44454283 23.3195391,9.28211771 23.1971762,9.04325725 C23.0748134,8.80439678 23.0512821,8.5559819 23.1265823,8.29801259 C23.3901331,7.51455026 23.4371957,6.69287026 23.2677702,5.83297258 C23.0983447,4.9730749 22.7218436,4.21827583 22.1382668,3.56857536 C21.55469,2.90932048 20.8581629,2.45309699 20.0486855,2.19990489 C19.239208,1.9467128 18.4250243,1.90610652 17.6061344,2.07808606 C17.3425836,2.13541257 17.0978578,2.09002908 16.8719572,1.94193559 C16.6460565,1.7938421 16.5048685,1.5860335 16.4483934,1.31850977 C16.3919182,1.05098605 16.4366277,0.804959771 16.5825219,0.580430933 C16.7284161,0.355902095 16.9331386,0.21497442 17.1966894,0.157647908 C18.3544304,-0.0907669771 19.5027588,-0.0358290699 20.6416748,0.322461629 C21.7805907,0.680752328 22.7594937,1.32328698 23.5783836,2.25006559 Z" id="Shape"></path>
                        </g>
                    </g>
                </g>
            </g>
        </g>
    </g>
</svg>